<?xml version="1.0" standalone="no"?>
<!DOCTYPE svg PUBLIC "-//W3C//DTD SVG 20010904//EN"
 "http://www.w3.org/TR/2001/REC-SVG-20010904/DTD/svg10.dtd">
<svg version="1.0" xmlns="http://www.w3.org/2000/svg"
 width="2000.000000pt" height="2000.000000pt" viewBox="0 0 2000.000000 2000.000000"
 preserveAspectRatio="xMidYMid meet">

<g transform="translate(0.000000,2000.000000) scale(0.100000,-0.100000)"
fill="#000000" stroke="none">
<path d="M15587 18930 c-259 -33 -491 -191 -602 -411 -54 -106 -68 -296 -32
-432 l12 -49 13 103 c26 222 127 329 308 329 90 0 141 -16 354 -110 85 -38
180 -75 210 -84 92 -25 215 -39 320 -34 98 4 109 2 91 -17 -14 -16 -39 -106
-46 -167 -8 -68 9 -192 36 -264 11 -28 47 -89 82 -135 87 -117 107 -117 189 4
28 41 52 64 82 78 44 20 129 25 169 10 25 -10 25 -9 42 77 26 139 31 295 11
372 -26 102 -101 201 -184 244 -21 11 -35 29 -46 62 -26 76 -61 128 -134 195
-113 104 -283 182 -471 214 -106 19 -315 26 -404 15z"/>
<path d="M7223 18283 l-63 -37 0 -2238 0 -2237 70 40 70 41 0 2234 c0 1229 -3
2234 -7 2234 -5 0 -36 -17 -70 -37z"/>
<path d="M6909 18102 c-25 -15 -53 -33 -62 -41 -15 -12 -17 -149 -17 -1651 0
-902 4 -1641 8 -1644 4 -2 36 11 70 30 l62 35 0 1650 c0 907 -3 1649 -7 1648
-5 0 -29 -12 -54 -27z"/>
<path d="M15131 18088 c-34 -18 -63 -61 -63 -92 0 -15 2 -29 5 -32 7 -7 187
57 187 67 0 4 -10 19 -22 33 -27 31 -74 41 -107 24z"/>
<path d="M15850 18043 c-22 -8 -50 -35 -50 -47 0 -7 38 -29 86 -50 95 -43 111
-41 100 18 -12 61 -79 100 -136 79z"/>
<path d="M6598 17924 l-28 -15 0 -1649 c0 -908 2 -1650 5 -1650 4 0 19 7 35
15 l30 16 0 1649 c0 908 -3 1650 -7 1650 -5 -1 -20 -8 -35 -16z"/>
<path d="M15155 17878 c-54 -31 -60 -85 -15 -130 26 -25 36 -29 63 -24 46 9
71 38 71 82 0 63 -66 102 -119 72z"/>
<path d="M15761 17843 c-12 -10 -24 -34 -27 -54 -16 -100 136 -131 161 -32 18
75 -75 134 -134 86z"/>
<path d="M6433 17829 l-33 -21 0 -1650 c0 -907 3 -1648 8 -1646 4 2 19 10 35
17 l27 14 0 1654 c0 909 -1 1653 -2 1653 -2 0 -18 -10 -35 -21z"/>
<path d="M6138 17657 l-58 -32 0 -1653 0 -1653 58 32 c31 18 63 37 70 42 18
14 17 3297 -1 3297 -7 -1 -38 -15 -69 -33z"/>
<path d="M5853 17479 l-33 -21 0 -2230 c0 -1226 3 -2228 8 -2226 4 2 19 10 35
17 l27 14 0 2234 c0 1228 -1 2233 -2 2233 -2 0 -18 -10 -35 -21z"/>
<path d="M11265 17434 c-16 -2 -66 -9 -110 -15 -44 -6 -116 -20 -160 -31 -44
-11 -100 -22 -125 -23 -68 -4 -218 -53 -230 -75 -16 -30 -12 -61 15 -114 31
-61 31 -77 0 -196 -31 -119 -32 -189 -4 -248 25 -50 25 -51 294 -311 231 -224
265 -246 369 -239 75 4 200 61 365 165 80 50 106 62 112 51 5 -7 9 -17 9 -23
0 -5 34 -32 76 -58 l76 -49 83 81 c91 90 154 125 204 115 17 -4 31 -5 31 -3 0
2 -7 55 -15 118 -18 133 -10 181 33 208 80 49 122 119 137 229 10 75 -7 121
-62 176 -59 58 -107 80 -275 123 -73 19 -134 39 -136 45 -5 15 -93 38 -212 55
-103 15 -415 28 -475 19z m565 -168 c0 -58 52 -121 150 -180 l45 -27 -35 7
c-19 3 -38 11 -42 17 -4 6 -10 8 -14 5 -11 -11 -92 50 -119 90 -28 41 -29 49
-15 86 12 33 30 34 30 2z m-816 -357 c46 -43 49 -49 35 -66 -13 -17 -13 -17 5
-3 17 13 23 10 72 -45 81 -90 163 -200 184 -248 22 -49 36 -142 23 -150 -5 -3
-120 103 -257 236 l-248 242 21 77 c12 43 21 81 21 84 0 7 54 -41 144 -127z"/>
<path d="M10959 16883 c-13 -16 -12 -17 4 -4 16 13 21 21 13 21 -2 0 -10 -8
-17 -17z"/>
<path d="M11049 16813 c-13 -16 -12 -17 4 -4 9 7 17 15 17 17 0 8 -8 3 -21
-13z"/>
<path d="M5505 17295 c-71 -41 -136 -79 -142 -85 -10 -9 -13 -352 -13 -1655 0
-905 3 -1645 8 -1645 4 0 52 25 107 56 55 31 118 67 140 79 l40 23 3 1651 c1
908 -1 1651 -5 1650 -5 0 -66 -34 -138 -74z"/>
<path d="M15608 17222 c-59 -16 -98 -32 -98 -39 0 -15 43 -55 71 -65 15 -6 19
-3 19 17 0 35 45 83 86 91 19 3 34 10 34 15 0 11 4 12 -112 -19z m-48 -64 c0
-12 -6 -9 -26 13 -19 22 -19 22 4 8 12 -8 22 -17 22 -21z"/>
<path d="M16449 17119 c0 -57 -1 -119 -2 -137 -2 -39 3 -40 36 -6 24 23 97
143 97 158 0 3 -17 13 -37 21 -21 9 -50 28 -65 42 l-28 27 -1 -105z"/>
<path d="M5008 17004 l-58 -36 0 -1649 c0 -907 3 -1649 8 -1648 4 0 34 17 67
37 l60 37 2 1648 c2 1298 0 1647 -10 1647 -6 0 -38 -17 -69 -36z"/>
<path d="M4713 16832 l-33 -17 0 -1652 0 -1653 35 17 35 17 0 1653 c0 909 -1
1653 -2 1652 -2 0 -18 -8 -35 -17z"/>
<path d="M4380 16642 l-135 -77 0 -1648 c0 -906 3 -1647 8 -1647 4 0 66 33
137 73 l130 72 0 1653 c0 908 -1 1652 -2 1652 -2 0 -64 -35 -138 -78z"/>
<path d="M15415 16493 c-216 -139 -385 -320 -498 -530 -124 -232 -171 -473
-237 -1218 -15 -164 -50 -801 -50 -902 l0 -82 52 -28 c50 -27 88 -67 168 -179
90 -126 261 -144 553 -59 77 22 370 132 452 169 17 8 71 31 120 51 50 20 91
38 92 39 1 1 7 143 13 316 26 785 80 1371 155 1690 9 36 17 74 19 85 15 99 67
287 85 309 11 13 12 17 2 11 -10 -5 -12 -3 -8 11 56 193 73 243 86 263 15 23
15 24 -6 12 -12 -6 -28 -19 -35 -29 -28 -39 -136 -117 -213 -153 -133 -64
-218 -82 -385 -83 -128 -1 -154 2 -219 23 -164 54 -210 160 -120 274 35 43 29
46 -26 10z"/>
<path d="M4093 16470 l-33 -20 0 -1650 0 -1650 35 17 35 17 0 1653 c0 909 -1
1653 -2 1653 -2 0 -18 -9 -35 -20z"/>
<path d="M16441 16434 c0 -11 3 -14 6 -6 3 7 2 16 -1 19 -3 4 -6 -2 -5 -13z"/>
<path d="M14770 16405 c-367 -85 -441 -158 -1019 -1007 l-141 -206 14 -39 c21
-61 84 -181 135 -257 86 -131 276 -297 436 -382 l74 -39 35 34 c34 33 34 35
41 140 34 557 54 768 85 912 25 113 86 311 114 374 13 27 25 55 26 60 5 15 63
122 102 188 45 77 122 166 182 211 57 42 54 42 -84 11z"/>
<path d="M15105 16420 c11 -5 27 -9 35 -9 9 0 8 4 -5 9 -11 5 -27 9 -35 9 -9
0 -8 -4 5 -9z"/>
<path d="M3883 16354 l-63 -36 0 -1649 c0 -907 3 -1649 6 -1649 11 0 119 63
126 74 10 14 10 3296 0 3296 -4 -1 -35 -17 -69 -36z"/>
<path d="M17145 16311 c-103 -59 -225 -199 -292 -334 -92 -185 -141 -374 -168
-637 -9 -91 -19 -176 -22 -190 -4 -14 -5 -29 -4 -35 2 -9 -12 -162 -50 -545
-10 -108 -19 -206 -19 -218 0 -19 19 -32 113 -77 61 -31 157 -67 212 -82 95
-25 112 -27 350 -27 173 -1 263 3 291 12 39 11 41 14 47 60 3 26 15 115 26
197 80 600 110 1076 81 1275 -16 108 -66 275 -107 351 -42 82 -124 166 -200
207 -55 28 -174 72 -197 72 -6 0 -33 -13 -61 -29z"/>
<path d="M3643 16200 l-33 -20 0 -1651 c0 -908 3 -1649 8 -1647 4 2 19 10 35
17 l27 14 0 1654 c0 909 -1 1653 -2 1653 -2 0 -18 -9 -35 -20z"/>
<path d="M3363 16053 l-113 -65 0 -1649 c0 -907 3 -1649 8 -1649 4 0 57 29
117 63 l110 62 3 1653 c1 908 -1 1652 -5 1651 -5 -1 -59 -30 -120 -66z"/>
<path d="M12302 16080 l-22 -18 31 -31 30 -31 -7 48 c-3 26 -7 48 -8 49 0 1
-11 -7 -24 -17z"/>
<path d="M16820 15980 c-6 -11 -8 -20 -6 -20 3 0 10 9 16 20 6 11 8 20 6 20
-3 0 -10 -9 -16 -20z"/>
<path d="M12335 15920 c-4 -12 -20 -27 -36 -34 l-29 -12 21 -22 c24 -27 36
-86 20 -105 -6 -8 -46 -22 -89 -32 l-78 -17 28 -28 c47 -47 26 -67 -106 -100
-99 -25 -142 -25 -208 0 -28 11 -53 18 -55 16 -10 -10 20 -57 49 -77 40 -29
151 -38 226 -19 36 9 307 123 319 134 5 4 -44 307 -50 312 -3 3 -8 -4 -12 -16z"/>
<path d="M3026 15859 l-26 -21 0 -1644 c0 -904 3 -1644 6 -1644 3 0 18 7 34
15 l30 16 0 1649 c0 922 -4 1650 -9 1650 -4 0 -20 -9 -35 -21z"/>
<path d="M2753 15702 l-63 -37 0 -1653 0 -1652 52 29 c29 17 60 37 70 45 17
15 18 90 18 1661 0 905 -4 1645 -8 1645 -4 -1 -35 -18 -69 -38z"/>
<path d="M2508 15562 l-28 -17 0 -2242 c0 -1234 3 -2243 8 -2243 4 0 18 8 32
18 l25 17 0 2243 c0 1233 -2 2242 -5 2242 -3 0 -17 -8 -32 -18z"/>
<path d="M14461 15494 c0 -11 3 -14 6 -6 3 7 2 16 -1 19 -3 4 -6 -2 -5 -13z"/>
<path d="M2348 15472 l-28 -17 0 -2247 0 -2247 35 20 35 21 0 2244 c0 1234 -3
2244 -7 2243 -5 0 -20 -8 -35 -17z"/>
<path d="M14661 14894 c0 -11 3 -14 6 -6 3 7 2 16 -1 19 -3 4 -6 -2 -5 -13z"/>
<path d="M16141 14814 c0 -11 3 -14 6 -6 3 7 2 16 -1 19 -3 4 -6 -2 -5 -13z"/>
<path d="M6757 14519 c-88 -46 -164 -164 -192 -296 -19 -87 -19 -123 -1 -123
23 0 36 25 47 92 25 157 125 276 212 254 38 -9 52 -49 51 -150 -1 -109 0 -106
-161 -446 -150 -314 -173 -368 -173 -398 0 -18 2 -32 5 -32 11 0 376 212 390
227 16 16 21 73 6 73 -6 0 -76 -38 -157 -85 -81 -47 -148 -84 -150 -82 -2 2
49 113 112 248 64 134 129 278 144 320 64 172 54 369 -21 409 -28 15 -70 11
-112 -11z"/>
<path d="M12315 14353 c-17 -15 -88 -81 -160 -147 -71 -66 -138 -127 -148
-136 -17 -16 -12 -24 110 -172 116 -141 258 -314 387 -473 27 -33 117 -143
200 -244 83 -102 238 -291 344 -420 106 -130 217 -265 246 -301 166 -202 353
-432 449 -550 l109 -135 122 -37 c66 -21 122 -38 124 -38 5 0 -65 88 -203 256
-71 87 -152 186 -180 219 -27 34 -120 147 -205 251 -85 103 -166 203 -180 220
-14 17 -83 103 -155 190 -71 87 -152 185 -180 219 -27 34 -138 169 -245 300
-107 131 -249 304 -315 385 -66 81 -137 168 -158 193 -22 26 -37 50 -35 55 1
5 75 76 163 158 88 82 160 153 160 158 0 10 -16 15 -200 70 -14 4 -30 -3 -50
-21z"/>
<path d="M6300 14244 c-216 -126 -220 -129 -220 -164 0 -16 3 -31 8 -33 4 -3
76 35 161 84 84 49 155 89 156 89 2 0 -3 -26 -10 -57 -8 -32 -59 -249 -114
-483 -56 -233 -101 -435 -101 -447 0 -28 11 -29 33 -5 19 20 260 1031 255
1070 -2 14 -7 27 -13 28 -5 1 -75 -36 -155 -82z"/>
<path d="M5458 13756 c-9 -7 -64 -95 -122 -196 -80 -140 -103 -187 -97 -203
14 -37 26 -28 71 50 24 43 62 109 84 148 l41 70 5 -423 5 -422 23 15 22 16 0
480 c0 263 -3 479 -7 479 -5 0 -16 -6 -25 -14z"/>
<path d="M4992 13497 c-56 -18 -128 -91 -167 -170 -46 -94 -83 -267 -57 -267
25 0 43 30 53 88 21 133 68 215 144 252 80 39 115 11 123 -100 8 -117 2 -134
-210 -580 -126 -262 -143 -310 -118 -325 5 -3 80 35 167 86 239 138 233 133
233 174 0 19 -3 35 -6 35 -3 0 -72 -38 -153 -85 -82 -47 -151 -85 -154 -85 -6
0 18 53 128 285 150 318 165 364 167 500 1 71 -3 100 -19 136 -12 26 -25 49
-29 52 -21 12 -72 14 -102 4z"/>
<path d="M4485 13194 c-99 -58 -180 -107 -181 -107 -1 -1 -4 -13 -7 -27 -14
-57 5 -53 158 35 82 47 152 85 156 85 5 0 6 -6 4 -12 -2 -7 -18 -74 -35 -148
-32 -136 -106 -450 -161 -678 -31 -130 -35 -162 -20 -162 13 0 39 27 45 48 3
9 37 154 76 322 39 168 91 388 116 488 41 172 54 262 37 262 -5 -1 -89 -48
-188 -106z"/>
<path d="M16990 12990 c-8 -5 -10 -10 -5 -10 6 0 17 5 25 10 8 5 11 10 5 10
-5 0 -17 -5 -25 -10z"/>
<path d="M4000 12925 c-97 -50 -175 -169 -207 -316 -17 -82 -25 -404 -11 -518
19 -167 83 -223 193 -172 96 45 183 178 209 321 34 181 28 535 -10 631 -32 79
-91 98 -174 54z m99 -91 c41 -52 46 -88 46 -329 0 -213 -2 -236 -23 -304 -37
-118 -94 -189 -165 -206 -49 -13 -77 2 -100 53 -21 44 -22 62 -22 287 0 221 2
246 22 311 29 90 77 162 128 191 53 30 89 29 114 -3z"/>
<path d="M15615 12837 c-231 -39 -422 -72 -424 -74 -2 -1 72 -93 165 -205 92
-112 189 -229 216 -261 49 -59 55 -73 39 -79 -5 -1 -60 -50 -122 -108 -222
-205 -275 -254 -344 -319 -38 -37 -128 -120 -198 -185 l-128 -119 -226 67
c-124 37 -227 65 -230 62 -9 -9 -25 -2007 -18 -2361 9 -565 36 -1415 70 -2245
8 -195 15 -396 15 -446 l0 -91 30 -7 c70 -14 180 -75 237 -132 l58 -57 95 -5
c113 -5 236 9 316 37 31 11 59 23 62 26 3 2 22 105 42 227 21 123 97 518 169
878 72 360 137 707 146 770 25 192 39 545 28 735 l-9 170 86 603 c48 331 89
604 91 606 2 3 32 -107 67 -243 123 -487 276 -1051 367 -1350 178 -588 578
-2004 645 -2285 l42 -178 46 -20 c158 -70 582 4 716 125 l34 32 -13 166 c-7
92 -18 303 -24 470 -54 1453 -73 1657 -197 2102 -30 110 -62 233 -70 275 -8
43 -30 322 -50 622 -68 1064 -118 1812 -130 1924 -3 32 -9 54 -13 48 -5 -9
-131 -71 -156 -77 -5 -1 -23 -7 -40 -14 -57 -24 -210 -61 -320 -78 -178 -28
-601 -21 -632 11 -3 3 -5 963 -2 983 4 23 -2 73 -8 72 -5 -1 -197 -33 -428
-72z"/>
<path d="M3465 12605 c-77 -45 -145 -87 -151 -93 -12 -11 -20 -89 -29 -287 -3
-66 -8 -146 -11 -177 -5 -48 -3 -58 9 -58 9 0 25 12 36 28 92 121 109 138 155
157 43 17 50 18 74 4 99 -54 76 -302 -40 -434 -84 -96 -184 -86 -204 20 -11
62 -57 34 -56 -35 1 -47 26 -105 56 -125 38 -28 97 -19 163 24 124 80 195 236
195 431 0 136 -32 199 -108 213 -53 10 -184 -64 -199 -114 -10 -32 -25 -11
-20 29 2 20 7 90 11 154 l6 117 136 78 c134 77 137 80 140 116 2 26 -1 37 -10
36 -7 0 -76 -38 -153 -84z"/>
<path d="M16795 12620 c-3 -6 1 -7 9 -4 18 7 21 14 7 14 -6 0 -13 -4 -16 -10z"/>
<path d="M2943 12315 c-66 -33 -115 -89 -158 -180 -44 -94 -59 -163 -59 -270
0 -72 4 -99 22 -135 44 -91 132 -104 215 -32 9 8 19 13 22 11 2 -3 -27 -90
-65 -194 -81 -220 -86 -249 -37 -212 15 11 158 386 223 585 49 149 54 279 15
366 -38 84 -94 104 -178 61z m96 -81 c69 -49 69 -239 -1 -362 -69 -121 -168
-166 -222 -102 -31 38 -40 81 -34 174 12 186 163 356 257 290z"/>
<path d="M16828 11903 c7 -3 16 -2 19 1 4 3 -2 6 -13 5 -11 0 -14 -3 -6 -6z"/>
<path d="M10834 10921 c-5 -5 -67 -43 -139 -84 -124 -71 -588 -339 -800 -462
-55 -32 -143 -83 -195 -113 -52 -30 -196 -114 -320 -185 -124 -72 -265 -154
-315 -182 -651 -374 -833 -480 -847 -492 -14 -13 -17 -37 -16 -169 l0 -155 42
-28 c22 -15 71 -44 108 -65 l68 -37 2 167 3 166 280 162 c444 256 810 468
1075 622 135 78 418 242 630 364 639 368 641 370 635 379 -3 6 -149 93 -196
117 -3 2 -10 -1 -15 -5z"/>
<path d="M3724 10057 c-193 -111 -368 -212 -389 -225 l-38 -23 35 -24 c19 -13
50 -32 69 -43 50 -28 795 -457 934 -538 66 -39 128 -73 138 -77 11 -4 15 -12
11 -18 -4 -8 -3 -9 4 -5 6 4 30 -5 53 -20 24 -15 56 -33 73 -41 17 -7 52 -27
78 -43 26 -16 73 -43 105 -61 32 -17 83 -46 113 -64 30 -19 183 -107 340 -198
157 -90 366 -211 465 -268 99 -58 189 -108 200 -113 17 -6 14 -10 -24 -31 -24
-14 -45 -25 -48 -25 -3 0 -49 -27 -104 -60 -54 -33 -102 -60 -105 -60 -4 0
-21 -11 -38 -24 l-31 -23 -145 84 c-80 46 -144 89 -142 94 1 6 -2 8 -7 4 -8
-5 -172 79 -206 105 -12 9 -267 156 -310 179 -59 31 -180 106 -183 113 -2 5
-8 8 -14 8 -6 0 -90 46 -187 101 -192 111 -222 128 -278 160 -21 12 -50 30
-65 40 -14 11 -30 19 -35 19 -4 0 -24 11 -43 23 -19 13 -55 35 -80 49 -25 14
-232 132 -460 263 -228 132 -431 248 -451 259 l-37 20 -83 -49 c-46 -27 -113
-65 -149 -85 -36 -20 -119 -68 -185 -106 -66 -39 -205 -119 -310 -179 -104
-59 -192 -110 -195 -112 -3 -3 -7 -489 -10 -1081 l-5 -1076 -315 -182 -315
-182 0 -1323 0 -1324 180 -103 c99 -57 236 -137 305 -177 69 -39 217 -125 330
-190 113 -65 241 -139 285 -165 44 -26 145 -84 225 -130 80 -46 181 -104 225
-130 44 -26 278 -161 520 -300 696 -401 1388 -802 1409 -816 21 -14 16 -16
191 86 75 44 437 253 515 298 77 44 715 412 965 557 55 32 235 136 400 230
165 95 401 231 525 303 l225 130 5 865 5 865 295 -170 c162 -94 495 -286 740
-428 421 -243 615 -355 915 -528 72 -41 173 -100 225 -130 52 -30 151 -87 220
-127 69 -40 361 -209 650 -375 289 -166 698 -403 911 -526 212 -122 397 -228
411 -235 30 -13 12 -21 258 121 69 40 197 114 285 165 88 51 306 177 485 280
359 207 601 347 1698 980 l743 428 -3 110 -3 110 -157 91 -157 90 49 28 c67
38 74 66 67 273 -5 140 -26 309 -41 334 -3 5 -13 53 -21 107 -20 122 -49 165
-71 107 -8 -21 -21 -31 -55 -40 -64 -17 -86 -41 -123 -134 -40 -103 -56 -112
-56 -32 0 116 -37 179 -118 204 -26 7 -42 18 -43 28 0 9 -9 -3 -19 -25 -38
-87 -148 -163 -295 -206 -69 -20 -102 -23 -235 -22 -109 0 -171 5 -207 16
l-53 15 0 -116 c0 -91 -4 -125 -19 -156 -38 -84 -158 -164 -308 -207 -99 -27
-313 -31 -409 -6 l-62 16 -4 -112 c-6 -138 -22 -179 -94 -245 -60 -55 -167
-104 -276 -127 -92 -19 -264 -19 -356 1 -40 8 -75 15 -78 15 -2 0 -4 -40 -4
-90 0 -144 -13 -185 -79 -250 -62 -62 -132 -99 -249 -132 -105 -30 -312 -32
-422 -4 -165 42 -271 110 -316 203 -25 49 -29 73 -33 161 l-3 104 -37 -6
c-127 -22 -195 -27 -269 -21 -237 18 -426 121 -473 257 -16 47 -19 50 -20 23
-1 -16 -1 -39 0 -51 1 -13 -8 -25 -24 -32 l-25 -12 1 93 c0 50 3 86 6 79 10
-24 40 56 46 123 4 37 13 81 22 97 11 23 15 63 15 150 l0 119 -27 -16 c-16 -8
-46 -26 -68 -40 -22 -13 -61 -36 -87 -50 l-48 -25 1 -148 c0 -175 10 -213 57
-227 31 -9 32 -10 32 -66 0 -32 3 -65 7 -75 4 -12 3 -15 -5 -10 -7 4 -12 3
-12 -3 0 -5 5 -11 11 -13 11 -4 -66 -58 -82 -58 -5 0 -9 -9 -9 -20 0 -29 23
-25 105 20 40 22 75 40 79 40 4 0 5 -57 4 -126 l-3 -125 -30 -17 c-16 -9 -32
-19 -35 -22 -3 -3 -14 -10 -25 -16 -11 -6 -59 -34 -107 -62 -49 -28 -88 -48
-88 -44 0 4 -4 2 -8 -3 -12 -17 -153 -97 -159 -91 -4 3 -2 6 3 6 6 0 9 17 8
38 -1 20 -2 451 -3 957 l-1 920 -33 19 c-17 10 -61 34 -97 53 -36 19 -69 39
-75 43 -11 8 -388 226 -465 268 -25 13 -52 30 -60 37 -8 7 -32 21 -52 31 -20
11 -90 50 -155 88 -65 38 -185 107 -268 154 -82 47 -156 92 -163 99 -8 7 -17
11 -22 8 -5 -3 -10 1 -13 7 -4 12 112 88 134 88 25 0 0 20 -87 68 -52 30 -101
51 -109 49 -7 -3 -43 -24 -81 -47 -61 -37 -68 -39 -84 -25 -9 8 -19 15 -23 15
-3 0 -81 44 -174 98 -338 197 -423 243 -434 236 -7 -4 -9 -3 -6 3 6 9 -428
270 -475 286 -17 6 -18 -34 -18 -754 0 -653 2 -760 14 -756 8 3 17 -1 20 -9
11 -29 -49 -1 -259 121 -115 67 -229 132 -252 144 l-43 21 0 1035 0 1035 -42
26 c-24 14 -180 104 -348 200 -168 97 -393 227 -500 289 -107 62 -285 164
-395 228 -110 63 -436 251 -725 418 -522 300 -625 359 -632 359 -1 0 -161 -91
-354 -203z m-930 -3123 c215 -124 399 -235 409 -246 15 -18 17 -49 17 -314 l0
-294 -23 -11 c-26 -12 6 -28 -587 313 -124 72 -233 139 -242 150 -16 18 -18
48 -18 305 0 288 4 323 37 323 9 0 192 -102 407 -226z m5712 -51 c-6 -6 -36 9
-36 18 0 5 9 4 20 -3 10 -7 18 -14 16 -15z m-910 -111 c-7 -12 93 -65 111 -58
12 5 13 4 4 -7 -8 -11 -5 -16 15 -26 14 -6 30 -8 36 -5 7 4 8 2 4 -4 -4 -7 -2
-12 5 -12 7 0 20 -7 30 -16 15 -14 34 -21 62 -23 5 -1 6 -5 3 -10 -4 -6 33
-32 54 -36 3 0 16 -8 30 -16 56 -36 131 -79 136 -79 2 0 18 -10 33 -21 17 -13
34 -18 42 -14 7 5 10 4 6 -2 -8 -13 50 -46 65 -37 6 4 8 3 5 -3 -8 -13 141
-96 156 -87 7 4 9 4 6 0 -4 -4 4 -18 17 -31 l24 -24 1 -303 c1 -167 1 -310 -1
-318 -3 -24 -33 -42 -60 -35 -14 4 -36 7 -50 7 -14 0 -19 3 -12 5 8 3 -8 19
-38 39 -29 19 -57 31 -62 27 -6 -3 -9 -2 -6 3 3 5 -27 28 -68 50 -41 23 -71
38 -68 33 3 -5 -2 -6 -10 -3 -9 3 -13 11 -9 17 4 6 0 8 -11 4 -9 -4 -15 -3
-12 1 7 12 -93 64 -106 56 -6 -4 -8 -3 -5 3 4 6 -23 29 -61 51 -81 49 -109 61
-97 42 5 -9 4 -11 -4 -6 -6 4 -9 11 -7 15 7 11 -52 43 -66 35 -6 -4 -8 -3 -5
3 4 6 0 13 -8 17 -11 4 -15 22 -15 71 0 37 -4 65 -10 65 -6 0 -11 91 -12 248
l-2 247 -6 -244 c-5 -232 -6 -244 -22 -227 -16 15 -17 41 -16 253 2 178 -1
238 -10 241 -9 3 -12 -51 -12 -232 0 -131 -4 -236 -9 -236 -5 0 -18 8 -30 18
-21 17 -22 23 -22 276 0 174 4 262 11 271 7 8 26 16 43 18 18 2 33 5 35 5 2 1
1 -2 -2 -6z m-1597 -181 c25 -34 27 -56 6 -47 -12 4 -15 -23 -17 -191 -2 -146
-6 -197 -15 -201 -10 -3 -13 37 -13 176 0 175 -1 180 -20 175 -11 -3 -20 -2
-20 3 0 17 44 114 51 114 4 0 17 -13 28 -29z m-115 -70 c28 -29 28 -55 1 -44
-13 4 -15 -23 -15 -191 0 -168 -2 -196 -15 -196 -13 0 -15 27 -15 183 0 118
-4 177 -10 167 -6 -10 -12 -11 -19 -5 -9 10 27 115 40 115 3 0 18 -13 33 -29z
m-321 -192 c26 -20 53 -91 42 -109 -3 -5 -37 -26 -75 -47 l-70 -38 0 -123 c0
-145 -13 -185 -58 -180 -23 3 -27 8 -30 41 -2 28 0 37 12 37 11 0 16 -9 16
-27 1 -27 1 -27 15 -9 11 15 15 48 15 128 0 59 -2 108 -4 108 -2 0 -35 -18
-74 -40 -38 -22 -72 -40 -76 -40 -16 0 -4 90 20 140 35 75 69 117 122 151 55
35 108 38 145 8z m2907 -69 c0 -5 -2 -10 -4 -10 -3 0 -8 5 -11 10 -3 6 -1 10
4 10 6 0 11 -4 11 -10z m-3430 -258 c0 -127 -15 -196 -51 -228 -15 -14 -19
-31 -19 -86 l0 -68 26 16 c18 12 28 14 36 6 8 -8 -5 -20 -43 -45 -99 -63 -129
-74 -129 -46 0 4 18 18 40 30 l40 23 0 68 c0 66 -1 68 -26 68 -39 0 -54 48
-54 177 l1 108 82 47 c45 26 85 48 90 48 4 0 7 -53 7 -118z m3065 -262 c3 -6
-1 -7 -9 -4 -18 7 -21 14 -7 14 6 0 13 -4 16 -10z m-2140 -30 c39 -26 25 -26
-17 0 -18 11 -28 20 -23 20 6 0 24 -9 40 -20z m312 -173 c90 -51 163 -95 163
-98 0 -3 -12 -12 -27 -20 -16 -7 -56 -31 -91 -51 -34 -21 -64 -38 -67 -38 -2
0 -45 -25 -95 -55 -50 -30 -94 -55 -98 -55 -5 0 -14 -6 -20 -12 -14 -14 -34
-17 -42 -8 -3 4 -45 30 -95 59 -49 29 -97 56 -105 61 -8 5 -39 23 -69 40 l-53
31 38 21 c22 11 48 26 59 32 11 7 45 27 75 43 30 17 84 50 120 72 36 23 77 47
93 54 15 7 24 17 20 22 -17 18 40 -10 194 -98z m-537 89 c0 -2 -7 -7 -16 -10
-8 -3 -12 -2 -9 4 6 10 25 14 25 6z m4710 -186 c0 -73 -2 -80 -20 -80 -14 0
-21 9 -25 38 -10 57 -12 60 -40 64 -25 3 -23 5 22 30 26 14 51 27 56 27 4 1 7
-35 7 -79z m-93 -24 c1 -1 5 -22 8 -46 3 -24 8 -46 11 -49 3 -3 21 -4 40 -2
30 2 34 0 34 -22 0 -64 -79 -177 -115 -164 -26 11 -35 54 -35 178 l0 119 28
-6 c15 -4 28 -8 29 -8z m-1967 -71 c14 -8 21 -14 15 -14 -5 0 -21 6 -35 14
-14 8 -20 14 -15 14 6 0 21 -6 35 -14z m65 -43 c-3 -3 -11 0 -18 7 -9 10 -8
11 6 5 10 -3 15 -9 12 -12z m6313 -187 c-5 -101 -16 -130 -75 -191 -50 -51
-114 -87 -217 -120 -73 -24 -97 -27 -236 -28 -99 -1 -178 4 -217 13 l-63 14 0
99 c0 90 2 99 18 94 84 -24 124 -29 242 -29 153 0 250 20 356 74 97 48 180
138 185 199 5 51 10 -51 7 -125z m-6133 85 c3 -6 -1 -7 -9 -4 -18 7 -21 14 -7
14 6 0 13 -4 16 -10z m95 -56 c0 -7 -58 25 -65 36 -3 5 10 1 29 -11 20 -12 36
-23 36 -25z m5204 -625 c-64 -117 -240 -199 -459 -215 -91 -7 -236 7 -294 27
l-31 11 0 95 c0 94 0 95 23 90 139 -33 356 -34 472 -2 133 37 245 112 285 190
l25 50 3 -98 c2 -90 1 -102 -24 -148z m-4444 191 c8 -5 11 -10 5 -10 -5 0 -17
5 -25 10 -8 5 -10 10 -5 10 6 0 17 -5 25 -10z m-7181 -247 c207 -119 391 -227
409 -240 l32 -24 0 -298 c0 -301 -2 -321 -37 -321 -7 0 -131 68 -275 151 -145
84 -324 187 -398 230 -78 45 -140 87 -147 101 -9 17 -13 101 -13 305 0 243 2
284 16 297 8 9 20 16 26 16 6 0 180 -97 387 -217z m7491 67 c0 -5 -2 -10 -4
-10 -3 0 -8 5 -11 10 -3 6 -1 10 4 10 6 0 11 -4 11 -10z m3357 -319 c-3 -71
-11 -122 -22 -145 -43 -90 -188 -180 -340 -211 -104 -21 -275 -21 -374 0 l-76
17 0 95 0 95 35 -6 c155 -24 195 -28 279 -22 237 15 427 110 476 239 10 26 20
47 23 47 3 0 2 -49 -1 -109z m-2679 45 c7 -19 34 -54 61 -78 107 -97 229 -138
431 -145 103 -4 151 -1 203 11 38 9 73 16 78 16 6 0 9 -39 7 -97 l-3 -98 -55
-13 c-87 -21 -300 -21 -395 1 -156 36 -294 125 -331 213 -17 41 -32 224 -18
224 6 0 16 -16 22 -34z m1856 -635 c-124 -325 -897 -335 -1063 -14 -6 12 -14
71 -17 130 l-5 108 25 -45 c47 -89 155 -164 292 -207 48 -15 92 -18 234 -18
197 0 242 10 365 74 85 44 135 92 161 154 l19 47 3 -93 c2 -68 -2 -104 -14
-136z m-5892 92 c15 -15 28 -35 28 -45 0 -21 -11 -23 -28 -6 -9 9 -12 -41 -12
-225 0 -204 -2 -237 -15 -237 -13 0 -15 31 -15 217 0 191 -2 214 -14 197 -10
-13 -18 -16 -25 -8 -8 7 -3 28 16 72 14 34 29 62 32 62 3 0 18 -12 33 -27z
m-102 -126 c0 -5 -11 -7 -25 -5 l-25 5 -2 -228 c-4 -301 -21 -312 -28 -19 -3
118 -7 209 -8 203 -1 -7 -9 -13 -18 -13 -19 0 -15 22 17 95 l22 49 33 -38 c19
-22 34 -44 34 -49z m-390 -187 c31 -33 49 -105 32 -122 -6 -6 -43 -29 -84 -52
l-73 -42 -5 -151 c-4 -134 -7 -155 -26 -180 -26 -34 -46 -39 -68 -17 -22 22
-18 78 7 82 13 3 17 -3 17 -28 0 -28 2 -31 15 -20 12 10 15 40 15 146 0 74 -3
134 -8 134 -4 0 -39 -18 -77 -41 -120 -70 -109 -70 -101 -3 4 36 20 86 41 129
62 124 148 195 238 195 42 0 53 -5 77 -30z m-620 -371 c0 -155 -11 -205 -56
-258 -32 -37 -34 -44 -34 -110 0 -75 5 -81 45 -55 23 15 45 12 45 -6 0 -12
-173 -110 -194 -110 -29 0 -17 19 29 46 l45 26 0 78 c0 77 0 78 -28 83 -43 9
-52 41 -52 196 l0 138 88 51 c48 28 93 52 100 52 9 0 12 -33 12 -131z"/>
<path d="M2400 6826 c0 -200 2 -236 15 -236 21 0 20 443 -1 461 -12 10 -14
-24 -14 -225z"/>
<path d="M2464 6790 c0 -129 2 -182 3 -117 2 64 2 170 0 235 -1 64 -3 11 -3
-118z"/>
<path d="M2510 6765 c0 -224 1 -235 20 -245 20 -11 20 -8 20 222 0 222 -1 234
-20 246 -20 12 -20 10 -20 -223z"/>
<path d="M2570 6938 c0 -9 5 -20 10 -23 13 -8 13 5 0 25 -8 13 -10 13 -10 -2z"/>
<path d="M2617 6704 c1 -149 5 -230 12 -237 8 -8 11 54 11 226 0 183 -3 237
-12 237 -10 0 -13 -51 -11 -226z"/>
<path d="M2664 6675 c0 -132 2 -185 3 -117 2 68 2 176 0 240 -1 64 -3 9 -3
-123z"/>
<path d="M2576 6883 c-10 -24 -6 -382 4 -388 4 -2 8 87 9 200 1 113 0 205 -2
205 -3 0 -8 -8 -11 -17z"/>
<path d="M2691 6664 c2 -215 3 -227 23 -246 l21 -19 3 233 c2 210 1 234 -15
245 -9 7 -21 13 -26 13 -4 0 -7 -102 -6 -226z"/>
<path d="M2771 6621 c1 -121 6 -225 10 -233 5 -7 9 90 9 220 0 156 -3 232 -11
232 -7 0 -9 -71 -8 -219z"/>
<path d="M2827 6584 c1 -146 5 -230 12 -237 8 -8 11 57 11 226 0 183 -3 237
-12 237 -10 0 -13 -51 -11 -226z"/>
<path d="M2900 6537 l0 -234 24 -11 c22 -10 25 -8 30 14 4 14 6 117 6 229 -1
203 -2 204 -25 219 -14 9 -27 16 -30 16 -3 0 -5 -105 -5 -233z"/>
<path d="M2994 6485 c0 -132 2 -185 3 -117 2 68 2 176 0 240 -1 64 -3 9 -3
-123z"/>
<path d="M3040 6455 c0 -150 4 -235 10 -235 6 0 10 85 10 235 0 150 -4 235
-10 235 -6 0 -10 -85 -10 -235z"/>
<path d="M3104 6425 c0 -132 2 -185 3 -117 2 68 2 176 0 240 -1 64 -3 9 -3
-123z"/>
<path d="M3140 6396 c0 -204 2 -236 15 -236 13 0 15 30 13 232 -2 174 -6 232
-15 236 -10 3 -13 -48 -13 -232z"/>
<path d="M7680 6351 l0 -248 25 -11 25 -12 0 249 0 248 -25 11 -25 12 0 -249z"/>
<path d="M7750 6311 c0 -165 4 -251 10 -251 14 0 13 487 -1 495 -5 4 -9 -91
-9 -244z"/>
<path d="M7792 6290 c2 -192 6 -254 16 -258 9 -3 12 50 12 241 0 206 -2 247
-15 257 -14 11 -15 -15 -13 -240z"/>
<path d="M7844 6260 c0 -140 2 -198 3 -127 2 70 2 184 0 255 -1 70 -3 12 -3
-128z"/>
<path d="M7880 6235 c0 -231 1 -245 19 -255 11 -5 22 -10 25 -10 3 0 6 110 6
245 0 231 -1 245 -19 255 -11 5 -22 10 -25 10 -3 0 -6 -110 -6 -245z"/>
<path d="M7961 6190 c1 -132 5 -243 10 -246 5 -3 9 98 9 240 0 151 -4 246 -10
246 -5 0 -9 -93 -9 -240z"/>
<path d="M8020 6156 c0 -153 4 -247 10 -251 7 -4 10 80 10 244 0 161 -4 251
-10 251 -6 0 -10 -88 -10 -244z"/>
<path d="M8100 6113 c0 -239 1 -249 20 -261 12 -7 25 -10 29 -8 5 3 9 112 10
243 l2 238 -30 18 -31 18 0 -248z"/>
<path d="M8194 6055 c0 -137 2 -195 3 -128 2 67 2 179 0 250 -1 70 -3 16 -3
-122z"/>
<path d="M8240 6027 c0 -210 2 -246 15 -251 14 -5 15 24 13 241 -2 186 -6 247
-15 251 -10 3 -13 -50 -13 -241z"/>
<path d="M8314 5990 c0 -140 2 -198 3 -127 2 70 2 184 0 255 -1 70 -3 12 -3
-128z"/>
<path d="M8357 6203 c-7 -13 -9 -399 -2 -447 16 -104 25 -32 25 198 0 216 -6
279 -23 249z"/>
<path d="M5441 6299 c-39 -24 -47 -31 -84 -80 -27 -36 -64 -126 -55 -135 3 -2
65 31 139 74 142 83 146 88 113 140 -19 29 -67 29 -113 1z"/>
<path d="M4961 6047 c-32 -19 -33 -21 -12 -28 16 -6 21 -17 21 -44 0 -28 4
-35 20 -35 18 0 20 7 20 65 0 36 -3 65 -7 64 -5 0 -23 -10 -42 -22z"/>
<path d="M4890 5903 c0 -117 12 -145 53 -126 28 13 51 50 62 101 6 31 5 32
-24 32 -28 0 -31 3 -37 40 -4 22 -10 40 -14 40 -5 0 -15 3 -24 6 -14 5 -16 -7
-16 -93z"/>
<path d="M1932 4346 c-2 -188 0 -226 13 -236 13 -11 15 15 15 224 0 192 -3
236 -14 236 -10 0 -13 -43 -14 -224z"/>
<path d="M1990 4509 c0 -5 5 -7 10 -4 6 3 10 8 10 11 0 2 -4 4 -10 4 -5 0 -10
-5 -10 -11z"/>
<path d="M2040 4288 c0 -222 1 -234 20 -246 20 -12 20 -10 20 223 0 224 -1
235 -20 245 -20 11 -20 8 -20 -222z"/>
<path d="M1995 4480 c-9 -15 -3 -390 7 -396 4 -3 8 87 8 200 0 113 -2 206 -4
206 -3 0 -8 -5 -11 -10z"/>
<path d="M2114 4240 c0 -129 2 -182 3 -117 2 64 2 170 0 235 -1 64 -3 11 -3
-118z"/>
<path d="M2150 4226 c0 -146 4 -237 10 -241 7 -4 10 75 10 229 0 146 -4 237
-10 241 -7 4 -10 -75 -10 -229z"/>
<path d="M2194 4195 c0 -132 2 -185 3 -117 2 68 2 176 0 240 -1 64 -3 9 -3
-123z"/>
<path d="M2230 4177 c0 -223 1 -237 19 -247 11 -5 22 -10 26 -10 3 0 4 104 3
231 -3 228 -3 232 -25 247 l-23 14 0 -235z"/>
<path d="M2314 4125 c0 -132 2 -185 3 -117 2 68 2 176 0 240 -1 64 -3 9 -3
-123z"/>
<path d="M2360 4101 c0 -143 4 -232 10 -236 7 -4 10 75 10 229 0 151 -4 236
-10 236 -6 0 -10 -83 -10 -229z"/>
<path d="M2431 4066 c-2 -215 -2 -225 18 -245 12 -12 26 -21 31 -21 6 0 10 83
10 229 0 226 0 230 -22 245 -12 9 -25 16 -29 16 -3 0 -7 -101 -8 -224z"/>
<path d="M2524 4005 c0 -132 2 -185 3 -117 2 68 2 176 0 240 -1 64 -3 9 -3
-123z"/>
<path d="M2572 3978 c2 -170 6 -232 15 -235 9 -3 12 48 12 217 0 121 -2 227
-5 235 -19 48 -24 -7 -22 -217z"/>
<path d="M2634 3945 c0 -132 2 -185 3 -117 2 68 2 176 0 240 -1 64 -3 9 -3
-123z"/>
<path d="M2680 3916 c0 -151 4 -236 10 -236 6 0 10 83 10 229 0 143 -4 232
-10 236 -7 4 -10 -75 -10 -229z"/>
<path d="M5800 3377 c-55 -29 -125 -117 -151 -191 -11 -32 -18 -61 -15 -63 3
-3 75 35 160 83 142 81 156 91 156 117 0 37 -40 77 -78 77 -16 0 -48 -10 -72
-23z"/>
<path d="M5241 3082 c-28 -16 -40 -27 -30 -30 23 -7 39 -33 39 -64 0 -21 5
-28 20 -28 18 0 20 7 20 75 0 41 -1 75 -2 74 -2 -1 -23 -13 -47 -27z"/>
<path d="M5160 2903 c0 -65 4 -124 9 -131 25 -41 108 34 118 106 5 40 5 41
-28 44 -30 3 -34 7 -39 38 -8 47 -17 60 -41 60 -18 0 -19 -8 -19 -117z"/>
<path d="M7570 8532 c0 -195 3 -252 13 -252 17 0 17 474 -1 492 -9 9 -12 -44
-12 -240z"/>
<path d="M7634 8495 c0 -137 2 -195 3 -128 2 67 2 179 0 250 -1 70 -3 16 -3
-122z"/>
<path d="M7680 8471 c0 -237 1 -251 19 -261 11 -5 22 -10 25 -10 3 0 6 109 6
243 l-1 242 -24 18 -25 18 0 -250z"/>
<path d="M7750 8426 c0 -135 4 -246 9 -246 13 0 15 477 2 485 -8 4 -11 -69
-11 -239z"/>
<path d="M7792 8404 c2 -189 6 -248 16 -252 10 -3 12 47 10 244 -2 189 -6 248
-16 252 -10 3 -12 -47 -10 -244z"/>
<path d="M7844 8375 c0 -137 2 -195 3 -128 2 67 2 179 0 250 -1 70 -3 16 -3
-122z"/>
<path d="M7880 8351 l0 -248 25 -11 25 -12 0 249 0 248 -25 11 -25 12 0 -249z"/>
<path d="M7961 8305 c0 -149 3 -246 9 -250 6 -4 10 84 10 244 0 146 -4 251 -9
251 -5 0 -10 -103 -10 -245z"/>
<path d="M8020 8276 c0 -152 4 -247 10 -251 7 -4 10 78 10 239 0 152 -4 247
-10 251 -7 4 -10 -78 -10 -239z"/>
<path d="M11037 8436 c-15 -32 -27 -62 -27 -67 0 -14 28 -11 33 4 3 6 6 -81 6
-195 1 -178 3 -208 16 -208 13 0 15 32 15 224 0 219 0 224 20 219 28 -7 25 11
-8 49 l-29 31 -26 -57z"/>
<path d="M8100 8226 l0 -244 24 -16 c14 -9 27 -12 30 -8 2 4 5 114 5 245 0
231 -1 237 -22 252 -12 8 -25 15 -29 15 -5 0 -8 -110 -8 -244z"/>
<path d="M8194 8170 c0 -140 2 -198 3 -127 2 70 2 184 0 255 -1 70 -3 12 -3
-128z"/>
<path d="M10902 8357 c-12 -28 -22 -58 -22 -64 0 -19 20 -16 28 5 4 9 9 -77
12 -193 7 -288 23 -277 30 20 3 127 7 224 8 218 3 -17 32 -17 32 0 0 12 -50
67 -61 67 -2 0 -14 -24 -27 -53z"/>
<path d="M8242 8144 c2 -189 6 -248 16 -252 10 -3 12 47 10 244 -2 189 -6 248
-16 252 -10 3 -12 -47 -10 -244z"/>
<path d="M8314 8105 c0 -137 2 -195 3 -128 2 67 2 179 0 250 -1 70 -3 16 -3
-122z"/>
<path d="M8357 8313 c-4 -3 -7 -111 -7 -238 0 -195 2 -235 15 -245 13 -11 15
17 15 239 0 229 -3 264 -23 244z"/>
<path d="M10463 8164 c-65 -32 -117 -89 -154 -169 -30 -62 -50 -165 -33 -165
5 0 44 20 88 45 43 25 80 45 82 45 2 0 4 -60 4 -134 0 -106 -3 -136 -15 -146
-16 -13 -16 -12 -19 29 -1 8 -7 16 -14 19 -10 3 -12 -7 -10 -39 2 -36 7 -45
24 -47 11 -2 29 7 40 19 16 18 20 41 24 172 l5 151 83 49 c69 40 82 52 82 74
0 39 -30 92 -61 108 -40 21 -68 19 -126 -11z m112 -10 c19 -8 45 -55 45 -81
-1 -22 -320 -209 -320 -187 0 7 9 37 20 66 52 136 174 233 255 202z"/>
<path d="M9913 7877 l-93 -52 0 -140 c0 -154 9 -185 56 -185 23 0 24 -2 24
-79 l0 -79 -46 -27 c-30 -18 -43 -30 -36 -37 9 -9 122 46 177 86 31 22 9 32
-30 13 -20 -9 -38 -17 -40 -17 -3 0 -5 33 -5 73 0 62 3 77 21 93 49 44 63 91
67 229 6 193 14 183 -95 122z m65 -79 c-3 -65 -5 -73 -23 -73 -16 0 -21 8 -23
38 -3 30 -9 40 -30 48 l-26 10 40 24 c61 38 65 35 62 -47z m-74 -55 c8 -38 12
-43 37 -43 37 0 42 -10 28 -65 -13 -53 -57 -105 -88 -105 -31 0 -41 37 -41
156 l0 105 28 -3 c23 -3 28 -9 36 -45z"/>
<path d="M19531 7384 c0 -11 3 -14 6 -6 3 7 2 16 -1 19 -3 4 -6 -2 -5 -13z"/>
<path d="M19263 7265 c0 -8 4 -12 9 -9 5 3 6 10 3 15 -9 13 -12 11 -12 -6z"/>
<path d="M19220 7246 c0 -2 8 -10 18 -17 15 -13 16 -12 3 4 -13 16 -21 21 -21
13z"/>
<path d="M19263 7233 c4 -3 1 -13 -6 -22 -11 -14 -10 -14 5 -2 16 12 16 31 1
31 -4 0 -3 -3 0 -7z"/>
<path d="M19080 7084 c0 -6 7 -19 16 -30 14 -18 14 -18 3 6 -14 31 -19 36 -19
24z"/>
<path d="M18993 6803 c7 -11 -19 -33 -29 -25 -4 4 -4 1 0 -6 6 -11 12 -10 27
4 16 14 18 34 3 34 -3 0 -3 -3 -1 -7z"/>
<path d="M18815 6789 c-4 -6 -5 -12 -2 -15 2 -3 7 2 10 11 7 17 1 20 -8 4z"/>
<path d="M18869 6678 c-5 -9 -5 -48 -1 -43 6 6 11 45 5 45 -2 0 -4 -1 -4 -2z"/>
<path d="M19037 6589 c7 -7 15 -10 18 -7 3 3 -2 9 -12 12 -14 6 -15 5 -6 -5z"/>
<path d="M18541 6564 c0 -11 3 -14 6 -6 3 7 2 16 -1 19 -3 4 -6 -2 -5 -13z"/>
<path d="M18567 6463 c3 -7 6 -13 8 -13 2 0 5 6 8 13 3 8 -1 14 -8 14 -7 0
-11 -6 -8 -14z"/>
<path d="M19108 6463 c7 -3 16 -2 19 1 4 3 -2 6 -13 5 -11 0 -14 -3 -6 -6z"/>
<path d="M18870 6450 c0 -5 7 -7 15 -4 8 4 15 8 15 10 0 2 -7 4 -15 4 -8 0
-15 -4 -15 -10z"/>
<path d="M18676 6417 c3 -10 9 -15 12 -12 3 3 0 11 -7 18 -10 9 -11 8 -5 -6z"/>
<path d="M12085 6350 c3 -5 8 -10 11 -10 2 0 4 5 4 10 0 6 -5 10 -11 10 -5 0
-7 -4 -4 -10z"/>
<path d="M18566 6287 c3 -10 9 -15 12 -12 3 3 0 11 -7 18 -10 9 -11 8 -5 -6z"/>
<path d="M11664 6173 c-17 -38 -29 -74 -26 -80 6 -19 29 -16 41 5 8 12 9 4 5
-31 -4 -46 -3 -48 18 -45 20 3 23 9 26 61 2 38 7 57 15 56 25 -3 37 1 37 14
-1 13 -66 87 -78 87 -4 0 -21 -30 -38 -67z"/>
<path d="M13160 6096 c0 -53 1 -96 3 -96 1 0 34 7 72 15 39 8 120 15 180 15
61 0 141 -7 180 -15 38 -8 73 -15 77 -15 5 0 8 41 8 90 0 50 -3 90 -7 90 -5 0
-44 -7 -88 -15 -131 -24 -320 -14 -407 20 -16 7 -18 -1 -18 -89z"/>
<path d="M18505 6159 c-4 -6 -5 -12 -2 -15 2 -3 7 2 10 11 7 17 1 20 -8 4z"/>
<path d="M11542 6147 c-5 -7 -16 -33 -26 -59 -10 -26 -21 -50 -26 -53 -13 -8
1 -45 16 -45 8 0 14 6 14 13 0 9 3 8 9 -2 5 -8 17 -11 28 -7 14 5 19 14 18 36
-2 26 1 29 21 24 39 -10 37 15 -5 61 -28 30 -43 40 -49 32z"/>
<path d="M11616 6145 c-3 -9 -6 -22 -5 -28 0 -7 5 -1 10 12 5 13 8 26 5 28 -2
2 -6 -3 -10 -12z"/>
<path d="M11825 6080 c-3 -5 -1 -10 4 -10 6 0 11 5 11 10 0 6 -2 10 -4 10 -3
0 -8 -4 -11 -10z"/>
<path d="M11648 6063 c7 -3 16 -2 19 1 4 3 -2 6 -13 5 -11 0 -14 -3 -6 -6z"/>
<path d="M11978 6053 c7 -3 16 -2 19 1 4 3 -2 6 -13 5 -11 0 -14 -3 -6 -6z"/>
<path d="M11968 6033 c7 -3 16 -2 19 1 4 3 -2 6 -13 5 -11 0 -14 -3 -6 -6z"/>
<path d="M11410 5970 c-9 -6 -10 -10 -3 -10 6 0 15 5 18 10 8 12 4 12 -15 0z"/>
<path d="M17717 5860 c4 -73 3 -110 -4 -110 -6 0 -14 21 -18 48 -3 26 -13 56
-20 68 -23 36 -92 48 -231 41 -129 -7 -222 -25 -284 -57 -55 -28 -64 -44 -62
-110 5 -118 -29 -77 -69 84 -14 58 -25 83 -30 74 -14 -22 -10 -99 11 -219 72
-406 100 -641 100 -829 0 -70 3 -175 7 -233 l6 -107 44 41 c102 94 274 148
494 156 152 6 228 -6 285 -44 19 -12 24 -13 24 -2 -1 39 -47 268 -100 492 -42
181 -67 322 -85 494 -26 250 -41 323 -65 323 -6 0 -7 -43 -3 -110z m-48 -353
c47 -13 56 -23 42 -45 -7 -11 -16 -11 -52 -1 -62 18 -212 15 -288 -5 -35 -9
-91 -28 -125 -42 -72 -31 -111 -36 -111 -14 0 21 115 76 210 99 92 22 254 26
324 8z m19 -187 c51 -11 63 -25 41 -47 -7 -7 -29 -6 -72 5 -113 26 -265 6
-409 -54 -69 -29 -88 -30 -88 -5 0 32 156 92 295 114 45 8 173 0 233 -13z m11
-191 c57 -12 70 -24 49 -45 -10 -11 -22 -12 -48 -4 -19 6 -76 10 -126 10 -101
0 -250 -32 -323 -69 -45 -23 -61 -21 -61 9 0 14 19 26 78 48 146 57 313 77
431 51z m35 -205 c40 -6 47 -10 44 -28 -3 -20 -7 -21 -118 -18 -125 4 -218
-11 -348 -54 -87 -29 -102 -30 -102 -5 0 14 17 25 68 43 155 57 323 80 456 62z"/>
<path d="M11021 5874 c-86 -37 -174 -141 -212 -251 -10 -31 -19 -62 -19 -70 0
-21 31 -15 37 7 3 11 10 20 16 20 6 0 8 3 4 6 -8 9 28 89 59 130 20 26 29 32
36 22 6 -9 8 -7 6 7 -2 11 2 19 9 18 7 -2 10 3 8 10 -7 19 72 69 118 74 51 6
80 -15 95 -69 10 -36 9 -38 -23 -58 -18 -11 -37 -20 -44 -20 -6 0 -11 -4 -11
-9 0 -5 -12 -14 -27 -20 -16 -6 -46 -22 -68 -35 -22 -14 -58 -36 -80 -48 l-40
-23 37 -3 c20 -2 46 2 58 8 13 7 20 7 20 0 0 -5 9 -10 20 -10 14 0 20 7 20 23
0 18 19 33 95 75 93 52 95 54 95 89 0 49 -34 117 -66 131 -34 16 -102 14 -143
-4z"/>
<path d="M10895 5820 c-3 -5 -1 -10 4 -10 6 0 11 5 11 10 0 6 -2 10 -4 10 -3
0 -8 -4 -11 -10z"/>
<path d="M12360 5627 l0 -94 63 15 c107 26 348 18 434 -15 10 -4 13 17 13 92
0 88 -2 97 -17 90 -10 -3 -63 -13 -118 -21 -119 -18 -252 -10 -357 22 -16 5
-18 -4 -18 -89z"/>
<path d="M10724 5560 c0 -11 4 -20 8 -20 4 0 8 9 8 20 0 11 -4 20 -8 20 -4 0
-8 -9 -8 -20z"/>
<path d="M11550 5160 c0 -49 1 -90 3 -90 1 0 37 7 80 15 100 19 252 19 342 0
38 -8 73 -15 77 -15 5 0 8 41 8 90 0 50 -1 90 -2 90 -2 0 -38 -7 -81 -15 -100
-19 -234 -19 -334 0 -43 8 -81 15 -85 15 -5 0 -8 -40 -8 -90z"/>
<path d="M17973 4485 c0 -22 2 -30 4 -17 2 12 2 30 0 40 -3 9 -5 -1 -4 -23z"/>
<path d="M17953 4393 c-37 -158 -137 -283 -279 -350 -64 -31 -91 -37 -159 -41
-160 -8 -248 51 -322 220 -37 82 -43 80 -13 -6 52 -152 137 -254 231 -276 110
-27 234 0 355 76 115 72 165 149 190 294 18 105 16 163 -3 83z"/>
<path d="M10749 3227 c-66 -22 -328 -178 -350 -209 -32 -44 -49 -112 -49 -193
0 -237 171 -522 380 -635 58 -31 73 -35 140 -35 75 0 75 1 199 73 183 107 202
122 229 175 31 59 39 163 22 265 -9 56 -16 72 -28 72 -10 0 -61 -27 -116 -60
-220 -132 -428 -186 -501 -128 -36 28 -58 80 -46 110 5 13 39 43 76 67 83 54
135 119 173 218 31 80 66 238 57 254 -7 11 -102 39 -129 38 -12 0 -37 -6 -57
-12z"/>
<path d="M10686 2663 c-13 -13 -5 -54 15 -74 18 -18 23 -19 35 -7 11 11 12 21
5 41 -10 27 -44 51 -55 40z"/>
</g>
</svg>
